<?xml version="1.0" encoding="utf-8"?>
<!-- Generator: Adobe Illustrator 21.1.0, SVG Export Plug-In . SVG Version: 6.00 Build 0)  -->
<svg version="1.1" id="Layer_1" xmlns="http://www.w3.org/2000/svg" xmlns:xlink="http://www.w3.org/1999/xlink" x="0px" y="0px"
	 viewBox="0 0 68.6 69.5" style="enable-background:new 0 0 68.6 69.5;" xml:space="preserve">
<style type="text/css">
	.st0{fill:#888890;}
	.st1{fill:none;stroke:#888890;stroke-width:0.5;stroke-miterlimit:10;}
</style>
<g>
	<path class="st0" d="M47.4,39.7c-2.8-2.5-2.5-2.1,1-6.4c2.1-2.6,2.9-4.2,2.7-4.9c-0.2-0.7-1.8-0.5-1.8-0.5l-5.1,0
		c0,0-0.4,0-0.7,0.1c-0.3,0.2-0.4,0.5-0.4,0.5s-0.8,2-1.9,3.8c-2.3,3.6-3.2,3.8-3.5,3.6c-0.9-0.5-0.6-2.1-0.6-3.3
		c0-3.5,0.6-5-1.1-5.4c-0.6-0.1-1-0.2-2.4-0.2c-1.8,0-3.4,0-4.2,0.4c-0.6,0.3-1,0.9-0.8,0.9c0.3,0,1.1,0.2,1.5,0.7
		c0.5,0.7,0.5,2.2,0.5,2.2s0.3,4.2-0.7,4.7c-0.7,0.4-1.6-0.4-3.7-3.7c-1-1.7-1.8-3.6-1.8-3.6s-0.2-0.4-0.4-0.5
		c-0.3-0.2-0.8-0.3-0.8-0.3l-4.8,0c0,0-0.7,0-1,0.3c-0.2,0.3,0,0.8,0,0.8s3.8,8.4,8.1,12.6c3.9,3.9,8.4,3.6,8.4,3.6h2
		c0,0,0.6-0.1,0.9-0.4c0.3-0.3,0.3-0.8,0.3-0.8s0-2.6,1.2-3c1.2-0.4,2.8,2.5,4.5,3.6c1.3,0.8,2.3,0.6,2.3,0.6l4.5-0.1
		c0,0,2.4-0.1,1.2-1.9C50.7,43.3,50.1,42.1,47.4,39.7z"/>
	<ellipse class="st1" cx="34.1" cy="36.2" rx="32" ry="30.3"/>
</g>
</svg>
