<?xml version="1.0" encoding="utf-8"?>
<!-- Generator: Adobe Illustrator 21.1.0, SVG Export Plug-In . SVG Version: 6.00 Build 0)  -->
<svg version="1.1" id="Layer_2" xmlns="http://www.w3.org/2000/svg" xmlns:xlink="http://www.w3.org/1999/xlink" x="0px" y="0px"
	 viewBox="0 0 288.1 96.6" style="enable-background:new 0 0 288.1 96.6;" xml:space="preserve">
<style type="text/css">
	.st0{fill:#FF0000;}
</style>
<g>
	<g>
		<path class="st0" d="M58.5,14.1c2.8,4.7-0.6,10.4-6.2,10.2c-5.9,0-8.9-5.5-6-10.2c2.6-4.3,6.1-10,6.1-10S54.9,8,58.5,14.1z"/>
		<path class="st0" d="M58.5,86c2.8-4.7-0.6-10.4-6.2-10.2c-5.9,0-8.9,5.5-6,10.2c2.6,4.3,6.1,10,6.1,10S54.9,92.1,58.5,86z"/>
		<path class="st0" d="M31.3,20.3c5.4,1.3,6.9,7.7,2.8,11.6C30,36.1,24,34.3,22.7,29c-1.2-4.9-2.7-11.4-2.7-11.4
			S24.4,18.6,31.3,20.3z"/>
		<path class="st0" d="M82.1,71.1c-1.3-5.4-7.8-6.9-11.6-2.8c-4.2,4.2-2.4,10.2,3,11.5c4.9,1.2,11.4,2.7,11.4,2.7S83.9,78,82.1,71.1
			z"/>
		<path class="st0" d="M16.5,43.9c4.7-2.8,10.4,0.6,10.2,6.2c0,5.9-5.5,8.9-10.2,6c-4.3-2.6-10-6.1-10-6.1S10.3,47.5,16.5,43.9z"/>
		<path class="st0" d="M88.3,43.9C83.6,41,78,44.5,78.1,50.1c0,5.9,5.5,8.9,10.2,6c4.3-2.6,10-6.1,10-6.1S94.4,47.5,88.3,43.9z"/>
		<path class="st0" d="M22.6,71.1c1.3-5.4,7.7-6.9,11.6-2.8c4.2,4.2,2.4,10.2-3,11.5c-4.9,1.2-11.4,2.7-11.4,2.7S20.9,78,22.6,71.1z
			"/>
		<path class="st0" d="M73.4,20.3c-5.3,1.3-6.9,7.7-2.8,11.6c4.2,4.2,10.2,2.4,11.5-3c1.2-4.9,2.7-11.4,2.7-11.4
			S80.3,18.6,73.4,20.3z"/>
	</g>
	<path class="st0" d="M52.4,27c-12.7,0-23,10.3-23,23c0,12.7,10.3,23,23,23c12.7,0,23-10.3,23-23C75.4,37.3,65.1,27,52.4,27z
		 M52.4,63.5c-7.5,0-13.5-6-13.5-13.5s6.1-13.5,13.5-13.5c7.5,0,13.5,6,13.5,13.5S59.8,63.5,52.4,63.5z"/>
</g>
<g>
	<path d="M115.3,37.6c4.3-0.2,4-0.6,7.6-0.6c9.3,0,14.6,5.2,14.6,13.3c0,8.9-6.2,15.2-15.7,15.2c-3.3,0-5.6-0.6-7.9-1.6l-0.5-6.1
		c2.7,2.9,5.4,3.5,7.6,3.5c5.4,0,8.3-4.2,8.7-8.8h-7.5c-2.1,0-2.9,0.7-3.2,1.1v-5.2c0.5,0.2,0.9,0.2,1.4,0.2h9.1
		c-0.3-2.6-1.9-7.4-7.9-7.4c-1.6,0-4,0.3-7.1,2.1L115.3,37.6z"/>
	<path d="M154.3,48.8l8.2,13.2c0.5,0.8,1.7,2,2.5,2.8l-5.7,0.2c-2.6,0.1-4.6-0.6-6.5-3.9l-4.8-8.6v8.1c0,1.6,0.2,3.1,1.6,4.2h-10.6
		c1.4-1.1,1.6-2.6,1.6-4.2V42c0-1.6-0.2-3.1-1.6-4.2h10.6c-1.4,1.1-1.6,2.6-1.6,4.2v8.3l6.3-8.3c0.4-0.6,0.7-1.3,0.7-2
		c0-0.8-0.7-1.5-1.5-2.2h9.8L154.3,48.8z"/>
	<path d="M179.3,37c9.1,0,14.7,6,14.7,14.1c0,7.9-5.7,14.4-15.2,14.4c-10.2,0-14.7-7.2-14.7-14C164.1,44.2,169.3,37,179.3,37z
		 M179.4,61.3c2.8,0,6.8-1.9,6.8-8.8c0-5.6-2.4-11.3-7.3-11.3c-3.5,0-7.1,2.5-7.1,9.2C171.8,58,175.7,61.3,179.4,61.3z"/>
	<path d="M217.8,43.4c-1.8-1.2-4.1-2.1-6.4-2.1c-7.5,0-7.5,7.8-7.5,9c0,9.8,5.7,11.1,8.9,11.1c2.5,0,6.1-1.3,8.6-2.6l-1.9,5.5
		c-1.8,0.7-4.4,1.4-8.4,1.4c-10,0-15-6.6-15-14.3c0-8.3,6-14.2,14.6-14.2c2.4,0,4.7,0.3,6.6,0.8L217.8,43.4z"/>
	<path d="M236.8,37.8c0.4,0,0.7,0,1-0.2v5.7c-1-1.5-2.5-1.7-3.4-1.7h-3.5v6.8h5.6v5.2c-0.9-1.2-1.9-1.4-2.7-1.4h-2.8v7.5
		c0,0.8,0.3,1.2,2.9,1.2h3.1c1.8,0,3.3-0.9,4.4-2l-1.5,5.9h-17.8c1.4-1.1,1.6-2.6,1.6-4.2V42c0-1.6-0.2-3.1-1.6-4.2H236.8z"/>
	<path d="M260.8,43.7c-0.5-1.4-2.2-1.5-3.3-1.5h-2.6v18.4c0,1.6,0.2,3.1,1.6,4.2H246c1.4-1.1,1.6-2.6,1.6-4.2V42.2H245
		c-1.9,0-3.3,0.7-4.5,1.8l1.5-6.3c0.3,0.1,0.6,0.2,1,0.2h18.2c0.4,0,0.7,0,1-0.2L260.8,43.7z"/>
	<path d="M273.1,37.8c-1.4,1.1-1.6,2.6-1.6,4.2v5.6c0.4-0.1,2.5-0.6,4.7-0.6c5.4,0,8.5,3,8.5,8.5c0,9.1-8.6,9.4-11.1,9.4h-11.1
		c1.4-1.1,1.6-2.6,1.6-4.2V42c0-1.6-0.2-3.1-1.6-4.2H273.1z M271.5,60.2c0.5,0.2,1.2,0.3,1.9,0.3c2.9,0,3.8-2.6,3.8-5
		c0-4.1-2.2-4.3-3.6-4.3c-0.7,0-1.4,0.1-2.1,0.4V60.2z"/>
</g>
</svg>
